<?xml version="1.0" encoding="iso-8859-1"?>
<!-- Generator: Adobe Illustrator 19.0.0, SVG Export Plug-In . SVG Version: 6.00 Build 0)  -->
<svg height="48px" width="48px" version="1.1" id="Layer_1" xmlns="http://www.w3.org/2000/svg" xmlns:xlink="http://www.w3.org/1999/xlink" x="0px" y="0px"
	 viewBox="0 0 512 512" style="enable-background:new 0 0 512 512;" xml:space="preserve">
<g id="SVGCleanerId_0">
	<g>
		<path d="M450.805,0H61.195C27.452,0,0,27.452,0,61.195v389.61C0,484.548,27.452,512,61.195,512h389.61
			C484.548,512,512,484.548,512,450.805V61.195C512,27.452,484.548,0,450.805,0z M491.602,450.805
			c0,22.495-18.301,40.797-40.797,40.797H61.195c-22.495,0-40.797-18.301-40.797-40.797V61.195
			c0-22.495,18.301-40.797,40.797-40.797h389.61c22.495,0,40.797,18.301,40.797,40.797V450.805z"/>
	</g>
</g>
<g>
	<g>
		<path d="M450.805,0H61.195C27.452,0,0,27.452,0,61.195v389.61C0,484.548,27.452,512,61.195,512h389.61
			C484.548,512,512,484.548,512,450.805V61.195C512,27.452,484.548,0,450.805,0z M491.602,450.805
			c0,22.495-18.301,40.797-40.797,40.797H61.195c-22.495,0-40.797-18.301-40.797-40.797V61.195
			c0-22.495,18.301-40.797,40.797-40.797h389.61c22.495,0,40.797,18.301,40.797,40.797V450.805z"/>
	</g>
</g>
<g>
	<g>
		<path d="M256,162.167c-51.74,0-93.833,42.093-93.833,93.833S204.26,349.833,256,349.833S349.833,307.74,349.833,256
			S307.74,162.167,256,162.167z M256,329.434c-40.492,0-73.434-32.942-73.434-73.434s32.942-73.434,73.434-73.434
			s73.434,32.942,73.434,73.434C329.434,296.492,296.492,329.434,256,329.434z"/>
	</g>
</g>
<g>
	<g>
		<path d="M47.936,103.012c-5.633,0-10.199,4.566-10.199,10.199v188.685c0,5.633,4.566,10.199,10.199,10.199
			c5.633,0,10.199-4.566,10.199-10.199V113.211C58.135,107.578,53.569,103.012,47.936,103.012z"/>
	</g>
</g>
<g>
	<g>
		<path d="M47.936,44.876c-5.633,0-10.199,4.566-10.199,10.199v18.359c0,5.633,4.566,10.199,10.199,10.199
			c5.633,0,10.199-4.566,10.199-10.199V55.076C58.135,49.443,53.569,44.876,47.936,44.876z"/>
	</g>
</g>
<g>
</g>
<g>
</g>
<g>
</g>
<g>
</g>
<g>
</g>
<g>
</g>
<g>
</g>
<g>
</g>
<g>
</g>
<g>
</g>
<g>
</g>
<g>
</g>
<g>
</g>
<g>
</g>
<g>
</g>
</svg>
